<svg xmlns="http://www.w3.org/2000/svg" width="668" height="68" viewBox="0 0 668 68" fill="none"><path d="M33.9977 37.7908L30.2084 33.9985L33.9977 30.21L37.787 33.9985L33.9977 37.7908ZM38.7691 49.9209L36.7805 47.9315L37.782 46.9312C38.3309 46.3834 39.2313 46.3834 39.7851 46.9312L40.7767 47.9239L42.2214 49.3694L45.9578 53.1046L39.9825 59.0803C38.3404 60.7197 36.1738 61.5375 34.0072 61.5375C31.8406 61.5375 29.674 60.7197 28.032 59.0803C26.3948 57.4371 25.5717 55.2689 25.5717 53.1046H25.5763C25.5763 50.9327 26.3948 48.7646 28.032 47.129C31.5515 43.5991 35.1099 40.073 38.6055 36.604L39.5637 37.5626L44.5515 42.5493C46.9015 44.9 49.9973 46.0753 53.0981 46.0753C56.1989 46.0753 59.2948 44.9 61.6443 42.5493C63.9939 40.2024 65.1689 37.1023 65.1689 34.0061C65.1689 30.9099 63.9939 27.8098 61.6443 25.4591L53.0981 16.9121L40.5747 29.4378L49.1259 37.981C50.2138 39.0688 51.6535 39.6128 53.0981 39.6128C54.5378 39.6204 55.9821 39.0764 57.0704 37.981C58.1586 36.8931 58.6976 35.4553 58.6976 34.0099C58.6976 32.5645 58.1537 31.1267 57.0704 30.0388L53.0981 26.0639L51.3693 27.7946L50.5268 28.6352L47.9365 31.2255L46.9349 30.2252C46.3861 29.6774 46.3861 28.7759 46.9349 28.2244L48.5238 26.6345L49.3667 25.7901L53.0981 22.0586L59.0734 28.0342C60.7101 29.6774 61.5336 31.8418 61.5336 34.0099C61.5336 36.178 60.7151 38.3423 59.0734 39.9855C57.4363 41.6211 55.2697 42.439 53.0981 42.439C50.9315 42.4466 48.7645 41.6249 47.1228 39.9855L36.5637 29.4416L42.5439 23.4546C44.8935 21.1077 46.0685 18.0076 46.0685 14.9114C46.0685 11.8151 44.8935 8.7151 42.5439 6.36439C40.1944 4.01369 37.0936 2.84216 33.9977 2.84216C30.9015 2.84216 27.8011 4.01369 25.4511 6.36439L16.9049 14.9114L25.4127 23.4165L25.4511 23.4546L29.4233 27.4294L37.9745 18.8787C39.0627 17.7908 39.6021 16.3492 39.6021 14.9076C39.6021 13.4622 39.0578 12.0205 37.9745 10.9327C36.8866 9.84481 35.4469 9.30088 34.0023 9.30088C32.558 9.30088 31.1183 9.84481 30.03 10.9327L26.0578 14.9076L29.0962 17.943L31.2001 20.0464L30.1985 21.0506C29.6497 21.5983 28.7493 21.5983 28.1955 21.0506L25.7642 18.6162L22.0521 14.9076L28.027 8.93191C29.6691 7.2887 31.8357 6.47091 34.0023 6.47091C36.1689 6.47091 38.3359 7.2887 39.9776 8.93191C41.6147 10.5713 42.4378 12.7395 42.4378 14.9076C42.4378 17.0719 41.6196 19.24 39.9776 20.8794L30.4298 30.4268L29.4427 31.4424L28.4268 30.4268L23.4097 25.4097C21.065 23.0894 17.9833 21.9255 14.9019 21.9255C11.8205 21.9255 8.70521 23.1008 6.35565 25.4477C4.00608 27.7984 2.83111 30.8984 2.83111 33.9947C2.83111 37.0909 4.00608 40.1909 6.35565 42.5416L14.9019 51.0886L23.4291 42.5607L23.4481 42.5416L27.4302 38.5591L18.879 30.0236H18.8741C17.7858 28.9357 16.3465 28.3918 14.9019 28.3918C13.4576 28.3918 12.0179 28.9357 10.9296 30.0236C9.84138 31.1115 9.29745 32.5493 9.29745 33.9947C9.29745 35.4401 9.84138 36.8779 10.9296 37.9658L14.9019 41.9407L16.6402 40.2024L18.0555 38.7874L19.0764 37.7642C19.6253 37.2164 20.5257 37.2164 21.0795 37.7642L22.081 38.7646L20.0635 40.7881L14.9114 45.9384L8.93648 39.9666C7.29935 38.3233 6.47584 36.1552 6.47584 33.9909C6.47584 31.8227 7.29441 29.6584 8.93648 28.0152C10.5782 26.3758 12.7448 25.5542 14.9114 25.5542C17.0784 25.5542 19.245 26.3758 20.8866 28.0152L30.4393 37.5588L31.4458 38.563L30.4443 39.5557L25.4416 44.5576C23.1065 46.9045 21.9365 49.9932 21.9365 53.0856C21.9365 56.1742 23.1111 59.2819 25.461 61.6288C27.8106 63.9795 30.9114 65.1548 34.0072 65.1548C37.1031 65.1548 40.2039 63.9795 42.5534 61.6288L51.1 53.0856L42.5534 44.5386L38.5911 40.5751L34.8691 44.2685L34.8592 44.2609L30.03 49.1031V49.1069C28.9422 50.1947 28.3929 51.6402 28.3929 53.0818H28.3979C28.3979 54.5234 28.9422 55.965 30.03 57.0529C31.1183 58.1407 32.558 58.6847 34.0023 58.6847C35.4469 58.6847 36.8866 58.1407 37.9745 57.0529L41.9467 53.0818L40.2134 51.3473L38.7691 49.9019V49.9209ZM50.7147 48.7151L55.0962 53.1008L44.547 63.6485C41.6436 66.5508 37.8205 68 33.9977 68C30.1746 68 26.3515 66.5508 23.4481 63.6485C20.5451 60.7463 19.0955 56.9235 19.0955 53.1008C19.0955 52.3058 19.1582 51.507 19.2834 50.7158L14.9019 55.0977L4.3526 44.55C1.44922 41.644 0 37.8212 0 33.9985C0 30.1757 1.44922 26.353 4.3526 23.4508C7.25599 20.5485 11.0791 19.0993 14.9019 19.0993C15.6965 19.0993 16.4956 19.1601 17.2853 19.2856L12.9038 14.9076L23.453 4.35604C26.3469 1.44923 30.1746 0 33.9977 0C37.8205 0 41.6436 1.44923 44.547 4.35223C47.4504 7.25447 48.8996 11.0772 48.8996 14.9C48.8996 15.6988 48.8368 16.4938 48.7117 17.2849L53.0981 12.8992L63.6474 23.4469C66.5508 26.3492 68 30.1719 68 33.9947C68 37.8174 66.5508 41.6402 63.6474 44.5424C60.744 47.4484 56.9209 48.8977 53.0981 48.8977C52.3035 48.8977 51.5044 48.833 50.7147 48.7075V48.7151Z" fill="white"></path><path d="M100.422 0.296631C109.834 0.296631 118.486 3.72075 124.666 9.898C130.845 16.0791 134.268 24.6374 134.268 34.0479C134.268 43.367 130.845 52.0167 124.666 58.1977C118.486 64.3788 109.834 67.7032 100.422 67.7032H84.4489H72.1846V0.296631H100.422ZM100.422 55.44C113.067 55.44 122.004 46.5964 122.004 34.0479C122.004 21.4043 113.067 12.6557 100.422 12.6557H84.4489V55.44H100.422Z" fill="white"></path><path d="M150.717 40.2289V55.44H189.697V67.7032H138.452V0.296631H188.651V12.6557H150.717V27.8668H187.225V40.2289H150.717Z" fill="white"></path><path d="M258.151 25.3031C258.151 32.146 255.679 38.5172 251.021 43.0817C248.359 45.7405 245.126 47.7375 241.513 48.8786L256.82 67.7032H242.844L228.583 50.2099H206.146V67.7032H193.881V0.296631H233.147C240.087 0.296631 246.457 2.86377 251.021 7.42558C255.679 11.99 258.151 18.3613 258.151 25.3031ZM233.147 37.9467C240.753 37.9467 245.887 32.8116 245.887 25.3031C245.887 17.6956 240.753 12.6557 233.147 12.6557H206.146V37.9467H233.147Z" fill="white"></path><path d="M299.51 54.394L324.515 0.296631H336.779V67.7032H324.515V26.9159L305.691 67.7032H293.425L274.6 26.9159V67.7032H262.336V0.296631H274.6L299.51 54.394Z" fill="white"></path><path d="M368.821 0.296631H381.18L409.133 67.7032H396.771L391.355 54.5842H358.646L353.23 67.7032H340.963L368.821 0.296631ZM363.781 42.321H386.22L375.002 15.1281L363.781 42.321Z" fill="white"></path><path d="M447.003 67.7004C427.521 67.7004 413.317 52.9078 413.317 34.0945C413.317 15.2775 427.521 0.299561 447.003 0.299561C462.754 0.299561 473.861 9.10024 478.506 21.7362L476.866 22.5806C472.496 10.5951 462.119 2.17175 447.003 2.17175C428.521 2.17175 415.139 16.3083 415.139 34.0945C415.139 51.877 428.521 65.8252 447.003 65.8252C462.298 65.8252 473.044 57.4951 477.14 45.2319L478.78 46.1676C474.318 59.085 463.028 67.7004 447.003 67.7004Z" fill="white"></path><path d="M517.194 67.7003C496.984 67.8867 482.964 52.8163 482.964 34.0944C482.964 15.3724 496.984 0.112655 517.194 0.299799C537.407 0.487323 551.427 15.3724 551.427 34.0944C551.427 52.8163 537.407 67.5101 517.194 67.7003ZM517.194 65.8251C536.406 65.6387 549.609 51.7855 549.609 34.0944C549.609 16.3994 536.406 2.35952 517.194 2.17199C497.985 1.98485 484.782 16.3994 484.782 34.0944C484.782 51.7855 497.985 66.0153 517.194 65.8251Z" fill="white"></path><path d="M572.271 66.7624H555.61V1.23755H572.271C599.859 1.23755 613.241 15.279 613.241 34.096C613.241 51.8823 599.859 66.7624 572.271 66.7624ZM557.429 3.10974V64.891H572.271C598.855 64.891 611.419 50.8514 611.419 34.096C611.419 16.3098 598.855 3.10974 572.271 3.10974H557.429Z" fill="white"></path><path d="M667.683 66.7624H617.425V1.23755H667.683V3.10974H619.247V34.096H662.948V35.9675H619.247V64.891H667.683V66.7624Z" fill="white"></path></svg>