<svg xmlns="http://www.w3.org/2000/svg" width="300" height="31" viewBox="0 0 300 31" fill="none"><path d="M15.2757 16.9799L13.5731 15.276L15.2757 13.5738L16.9782 15.276L15.2757 16.9799ZM17.4195 22.4302L16.526 21.5363L16.976 21.0868C17.2226 20.8407 17.6272 20.8407 17.876 21.0868L18.3216 21.5329L18.9707 22.1824L20.6495 23.8607L17.9647 26.5456C17.2269 27.2822 16.2534 27.6497 15.2799 27.6497C14.3064 27.6497 13.333 27.2822 12.5952 26.5456C11.8596 25.8073 11.4897 24.8331 11.4897 23.8607H11.4918C11.4918 22.8848 11.8596 21.9106 12.5952 21.1757C14.1766 19.5897 15.7754 18.0054 17.346 16.4467L17.7765 16.8774L20.0176 19.118C21.0735 20.1742 22.4645 20.7023 23.8578 20.7023C25.251 20.7023 26.642 20.1742 27.6977 19.118C28.7534 18.0635 29.2813 16.6706 29.2813 15.2794C29.2813 13.8882 28.7534 12.4954 27.6977 11.4392L23.8578 7.59886L18.2308 13.2268L22.073 17.0654C22.5618 17.5542 23.2086 17.7986 23.8578 17.7986C24.5046 17.802 25.1536 17.5576 25.6425 17.0654C26.1315 16.5766 26.3737 15.9306 26.3737 15.2811C26.3737 14.6317 26.1293 13.9857 25.6425 13.4969L23.8578 11.7109L23.081 12.4885L22.7024 12.8662L21.5385 14.0301L21.0885 13.5806C20.8419 13.3345 20.8419 12.9294 21.0885 12.6816L21.8024 11.9673L22.1812 11.5878L23.8578 9.91124L26.5425 12.5962C27.2779 13.3345 27.648 14.307 27.648 15.2811C27.648 16.2553 27.2802 17.2278 26.5425 17.9661C25.8069 18.701 24.8335 19.0684 23.8578 19.0684C22.8843 19.0719 21.9106 18.7027 21.173 17.9661L16.4286 13.2285L19.1156 10.5385C20.1713 9.48398 20.6992 8.09107 20.6992 6.69989C20.6992 5.30871 20.1713 3.91582 19.1156 2.85961C18.0599 1.80341 16.6667 1.27702 15.2757 1.27702C13.8845 1.27702 12.4914 1.80341 11.4356 2.85961L7.59562 6.69989L11.4183 10.5214L11.4356 10.5385L13.2203 12.3244L17.0625 8.48246C17.5515 7.99366 17.7938 7.34594 17.7938 6.6982C17.7938 6.04875 17.5492 5.401 17.0625 4.91221C16.5737 4.42341 15.9268 4.17902 15.2777 4.17902C14.6288 4.17902 13.9819 4.42341 13.4929 4.91221L11.7082 6.6982L13.0734 8.06203L14.0186 9.00713L13.5686 9.45833C13.322 9.70443 12.9175 9.70443 12.6686 9.45833L11.5762 8.36454L9.90833 6.6982L12.5929 4.01324C13.3307 3.27492 14.3042 2.90747 15.2777 2.90747C16.2512 2.90747 17.2249 3.27492 17.9625 4.01324C18.6981 4.74984 19.0679 5.72403 19.0679 6.6982C19.0679 7.67066 18.7003 8.64482 17.9625 9.38143L13.6726 13.6712L13.2291 14.1275L12.7726 13.6712L10.5183 11.4169C9.46483 10.3744 8.08014 9.85142 6.69562 9.85142C5.3111 9.85142 3.91138 10.3795 2.85568 11.434C1.79999 12.4902 1.27206 13.8831 1.27206 15.2743C1.27206 16.6655 1.79999 18.0584 2.85568 19.1146L6.69562 22.9549L10.527 19.1231L10.5356 19.1146L12.3248 17.3252L8.48262 13.49H8.4804C7.99144 13.0012 7.34473 12.7568 6.69562 12.7568C6.04669 12.7568 5.3998 13.0012 4.91084 13.49C4.42187 13.9788 4.17748 14.6249 4.17748 15.2743C4.17748 15.9237 4.42187 16.5698 4.91084 17.0586L6.69562 18.8445L7.47666 18.0635L8.11261 17.4277L8.57132 16.968C8.81794 16.7219 9.22248 16.7219 9.47132 16.968L9.92132 17.4175L9.01483 18.3267L6.69989 20.6408L4.01529 17.9575C3.2797 17.2192 2.90969 16.245 2.90969 15.2726C2.90969 14.2984 3.27748 13.326 4.01529 12.5876C4.75292 11.851 5.72641 11.4819 6.69989 11.4819C7.67355 11.4819 8.64704 11.851 9.38467 12.5876L13.6768 16.8757L14.129 17.3269L13.679 17.773L11.4313 20.0204C10.3821 21.0749 9.85637 22.4627 9.85637 23.8521C9.85637 25.2399 10.3841 26.6362 11.44 27.6907C12.4957 28.7469 13.8889 29.275 15.2799 29.275C16.6709 29.275 18.0642 28.7469 19.1199 27.6907L22.96 23.8521L19.1199 20.0118L17.3395 18.231L15.6672 19.8905L15.6628 19.8871L13.4929 22.0627V22.0644C13.0041 22.5532 12.7573 23.2027 12.7573 23.8504H12.7596C12.7596 24.4982 13.0041 25.1459 13.4929 25.6347C13.9819 26.1235 14.6288 26.3679 15.2777 26.3679C15.9268 26.3679 16.5737 26.1235 17.0625 25.6347L18.8473 23.8504L18.0685 23.0711L17.4195 22.4216V22.4302ZM22.7869 21.8884L24.7555 23.8589L20.0156 28.5982C18.7111 29.9022 16.9933 30.5534 15.2757 30.5534C13.5579 30.5534 11.8401 29.9022 10.5356 28.5982C9.23119 27.2942 8.57987 25.5766 8.57987 23.8589C8.57987 23.5018 8.60807 23.1428 8.6643 22.7874L6.69562 24.7562L1.95569 20.017C0.651154 18.7112 0 16.9936 0 15.276C0 13.5584 0.651154 11.8408 1.95569 10.5368C3.26022 9.23274 4.97801 8.58158 6.69562 8.58158C7.05265 8.58158 7.41172 8.60892 7.76652 8.66532L5.79785 6.6982L10.5378 1.95723C11.838 0.65116 13.5579 0 15.2757 0C16.9933 0 18.7111 0.651158 20.0156 1.95552C21.3201 3.25954 21.9713 4.97716 21.9713 6.69478C21.9713 7.05368 21.9431 7.41088 21.8869 7.76637L23.8578 5.7958L28.5977 10.5351C29.9022 11.8391 30.5534 13.5567 30.5534 15.2743C30.5534 16.9919 29.9022 18.7095 28.5977 20.0135C27.2932 21.3193 25.5754 21.9704 23.8578 21.9704C23.5007 21.9704 23.1417 21.9414 22.7869 21.885V21.8884Z" fill="white"></path><path d="M45.1209 0.133301C49.35 0.133301 53.2374 1.67181 56.0141 4.44733C58.7907 7.22457 60.3287 11.07 60.3287 15.2982C60.3287 19.4854 58.7907 23.3719 56.0141 26.1491C53.2374 28.9263 49.35 30.4201 45.1209 30.4201H37.9441H32.4336V0.133301H45.1209ZM45.1209 24.91C50.8025 24.91 54.818 20.9364 54.818 15.2982C54.818 9.61727 50.8025 5.68641 45.1209 5.68641H37.9441V24.91H45.1209Z" fill="white"></path><path d="M67.7187 18.0755V24.91H85.2333V30.4201H62.208V0.133301H84.7633V5.68641H67.7187V12.521H84.1225V18.0755H67.7187Z" fill="white"></path><path d="M115.991 11.3691C115.991 14.4437 114.88 17.3064 112.787 19.3573C111.591 20.5519 110.139 21.4492 108.515 21.9619L115.393 30.4201H109.113L102.705 22.56H92.624V30.4201H87.1133V0.133301H104.756C107.874 0.133301 110.737 1.28675 112.787 3.33644C114.88 5.38732 115.991 8.25001 115.991 11.3691ZM104.756 17.05C108.173 17.05 110.48 14.7428 110.48 11.3691C110.48 7.95093 108.173 5.68641 104.756 5.68641H92.624V17.05H104.756Z" fill="white"></path><path d="M134.574 24.44L145.809 0.133301H151.319V30.4201H145.809V12.0937L137.351 30.4201H131.84L123.382 12.0937V30.4201H117.871V0.133301H123.382L134.574 24.44Z" fill="white"></path><path d="M165.716 0.133301H171.269L183.829 30.4201H178.275L175.841 24.5255H161.145L158.711 30.4201H153.199L165.716 0.133301ZM163.452 19.0154H173.534L168.494 6.79731L163.452 19.0154Z" fill="white"></path><path d="M200.845 30.4187C192.092 30.4187 185.71 23.7721 185.71 15.3191C185.71 6.86432 192.092 0.134521 200.845 0.134521C207.923 0.134521 212.913 4.08879 215 9.76632L214.263 10.1457C212.3 4.76045 207.637 0.975725 200.845 0.975725C192.541 0.975725 186.529 7.32748 186.529 15.3191C186.529 23.309 192.541 29.5762 200.845 29.5762C207.718 29.5762 212.546 25.8333 214.386 20.3233L215.123 20.7437C213.118 26.5477 208.046 30.4187 200.845 30.4187Z" fill="white"></path><path d="M232.383 30.4188C223.303 30.5026 217.003 23.7312 217.003 15.3192C217.003 6.90715 223.303 0.0507122 232.383 0.134798C241.465 0.219056 247.764 6.90715 247.764 15.3192C247.764 23.7312 241.465 30.3334 232.383 30.4188ZM232.383 29.5763C241.015 29.4925 246.948 23.2681 246.948 15.3192C246.948 7.3686 241.015 1.06026 232.383 0.976002C223.752 0.891916 217.82 7.3686 217.82 15.3192C217.82 23.2681 223.752 29.6617 232.383 29.5763Z" fill="white"></path><path d="M257.129 29.9972H249.644V0.555908H257.129C269.525 0.555908 275.538 6.86493 275.538 15.3197C275.538 23.3113 269.525 29.9972 257.129 29.9972ZM250.46 1.39711V29.1563H257.129C269.074 29.1563 274.719 22.8481 274.719 15.3197C274.719 7.32809 269.074 1.39711 257.129 1.39711H250.46Z" fill="white"></path><path d="M300 29.9972H277.418V0.555908H300V1.39711H278.237V15.3197H297.872V16.1606H278.237V29.1563H300V29.9972Z" fill="white"></path></svg>