<svg xmlns="http://www.w3.org/2000/svg" width="927" height="97" viewBox="0 0 927 97" fill="none"><path d="M47.2311 54.4739L41.9669 49.2101L47.2311 43.9462L52.4954 49.2101L47.2311 54.4739ZM53.8599 71.3291L51.0974 68.5667L52.4887 67.1755C53.2512 66.413 54.5021 66.413 55.2713 67.1755L56.6493 68.5533L58.656 70.5599L63.8466 75.7502L55.5456 84.0507C53.2646 86.3315 50.2546 87.4685 47.2445 87.4685C44.2344 87.4685 41.2244 86.3315 38.9434 84.0507C36.6692 81.7699 35.5253 78.76 35.5253 75.7502H35.532C35.532 72.7337 36.6692 69.7238 38.9434 67.4497C43.8331 62.547 48.7763 57.6443 53.6325 52.8286L54.9636 54.1596L61.8934 61.0889C65.1577 64.3529 69.4587 65.9849 73.7664 65.9849C78.0742 65.9849 82.3752 64.3529 85.6394 61.0889C88.9037 57.8249 90.5358 53.5175 90.5358 49.2167C90.5358 44.916 88.9037 40.6086 85.6394 37.3446L73.7664 25.4724L56.3683 42.8693L68.248 54.7415C69.7597 56.2531 71.7597 57.0089 73.7664 57.0089C75.7664 57.0156 77.7732 56.2598 79.2849 54.7415C80.7966 53.2299 81.5458 51.23 81.5458 49.2234C81.5458 47.2169 80.7899 45.217 79.2849 43.7054L73.7664 38.1873L71.3651 40.5885L70.1945 41.759L66.5958 45.3575L65.2045 43.9662C64.4419 43.2037 64.4419 41.953 65.2045 41.1838L67.4119 38.9766L68.5825 37.8061L73.7664 32.6225L82.0675 40.923C84.3418 43.2037 85.4856 46.2136 85.4856 49.2234C85.4856 52.2333 84.3485 55.2431 82.0675 57.5239C79.7932 59.798 76.7832 60.9351 73.7664 60.9351C70.7564 60.9418 67.7463 59.8047 65.4654 57.5239L50.7964 42.876L59.1041 34.5622C62.3684 31.2981 64.0005 26.9907 64.0005 22.69C64.0005 18.3893 62.3684 14.0818 59.1041 10.8178C55.8399 7.55383 51.5322 5.92182 47.2311 5.92182C42.9301 5.92182 38.6224 7.55383 35.3581 10.8178L23.4851 22.69L35.3046 34.5086L35.3581 34.5622L40.8766 40.0802L52.7562 28.2014C54.268 26.6897 55.0171 24.6899 55.0171 22.6833C55.0171 20.6767 54.2613 18.6769 52.7562 17.1653C51.2445 15.6536 49.2445 14.8978 47.2378 14.8978C45.2311 14.8978 43.2311 15.6536 41.7194 17.1653L36.2009 22.6833L40.4217 26.9038L43.3448 29.8267L41.9535 31.2179C41.1909 31.9804 39.9401 31.9804 39.1709 31.2179L35.7929 27.8402L30.6357 22.6833L38.9367 14.3828C41.2177 12.102 44.2278 10.965 47.2378 10.965C50.2479 10.965 53.2579 12.102 55.5389 14.3828C57.8131 16.6636 58.957 19.6735 58.957 22.6833C58.957 25.6931 57.8198 28.703 55.5389 30.9838L42.2746 44.2472L40.9033 45.6584L39.4919 44.2472L32.522 37.2777C29.2644 34.0538 24.9835 32.4352 20.7025 32.4352C16.4215 32.4352 12.0937 34.0672 8.8295 37.3312C5.56526 40.5952 3.93314 44.9026 3.93314 49.2034C3.93314 53.5041 5.56526 57.8115 8.8295 61.0755L20.7025 72.9477L32.5487 61.1023L32.5755 61.0755L38.1073 55.5441L26.2276 43.6853H26.2209C24.7092 42.1737 22.7092 41.4179 20.7025 41.4179C18.6958 41.4179 16.6958 42.1737 15.1841 43.6853C13.6723 45.1969 12.9165 47.1968 12.9165 49.2034C12.9165 51.2099 13.6723 53.2098 15.1841 54.7214L20.7025 60.2395L23.1172 57.8249L25.0838 55.8585L26.5019 54.4405C27.2644 53.678 28.5153 53.678 29.2845 54.4405L30.6758 55.8317L27.8731 58.6409L20.7159 65.7976L12.4148 57.4972C10.1405 55.2164 8.99672 52.2065 8.99672 49.1967C8.99672 46.1868 10.1339 43.177 12.4148 40.8962C14.6958 38.6154 17.7058 37.4784 20.7159 37.4784C23.7259 37.4784 26.736 38.6154 29.0169 40.8962L42.2879 54.1529L43.6859 55.5508L42.2946 56.9286L35.3447 63.878C32.1006 67.1353 30.4751 71.4294 30.4751 75.7234C30.4751 80.0175 32.1073 84.3316 35.3715 87.5956C38.6357 90.8596 42.9435 92.4916 47.2445 92.4916C51.5455 92.4916 55.8533 90.8596 59.1175 87.5956L70.9905 75.7234L59.1175 63.8513L53.6124 58.3466L48.4418 63.4767L48.4285 63.4633L41.7194 70.192V70.1987C40.2077 71.7103 39.4451 73.7169 39.4451 75.7167H39.4518C39.4518 77.7233 40.2077 79.7232 41.7194 81.2348C43.2311 82.7464 45.2311 83.5022 47.2378 83.5022C49.2445 83.5022 51.2445 82.7464 52.7562 81.2348L58.2747 75.7167L55.8666 73.3089L53.8599 71.3023V71.3291ZM70.4554 69.6502L76.5424 75.7435L61.8867 90.3981C57.8533 94.4313 52.5422 96.4445 47.2311 96.4445C41.92 96.4445 36.609 94.4313 32.5755 90.3981C28.542 86.3649 26.5286 81.0542 26.5286 75.7435C26.5286 74.6399 26.6156 73.5296 26.7895 72.4327L20.7025 78.5192L6.04687 63.8646C2.01339 59.8315 0 54.5208 0 49.2101C0 43.8994 2.01339 38.5887 6.04687 34.5555C10.0803 30.5223 15.3914 28.509 20.7025 28.509C21.8062 28.509 22.9166 28.596 24.0136 28.7699L17.9266 22.6833L32.5822 8.02871C36.6023 3.98884 41.92 1.97559 47.2311 1.97559C52.5422 1.97559 57.8533 3.98884 61.8867 8.02203C65.9202 12.0552 67.9336 17.3659 67.9336 22.6766C67.9336 23.7869 67.8467 24.8905 67.6727 25.9874L73.7664 19.8942L88.4221 34.5488C92.4555 38.582 94.4689 43.8927 94.4689 49.2034C94.4689 54.5141 92.4555 59.8248 88.4221 63.858C84.3886 67.8911 79.0775 69.9044 73.7664 69.9044C72.6628 69.9044 71.5524 69.8174 70.4554 69.6435V69.6502Z" fill="#2F2B2A"></path><path d="M520.929 1.97559H538.099L576.932 95.622H559.761L552.232 77.3946H506.796L499.267 95.622H482.229L520.929 1.97559ZM513.928 60.356H545.1L529.514 22.5804L513.928 60.356Z" fill="#2F2B2A"></path><path d="M426.837 77.1304L461.574 1.97559H478.613V95.622H461.574V38.9586L435.422 95.622H418.383L392.231 38.9586V95.622H375.192V1.97559H392.231L426.837 77.1304Z" fill="#2F2B2A"></path><path d="M369.266 36.7132C369.266 46.2232 365.832 55.0727 359.36 61.4126C355.662 65.1109 351.171 67.8847 346.152 69.4697L367.417 95.622H348.001L328.189 71.3188H297.017V95.622H279.979V1.97559H334.529C344.171 1.97559 353.02 5.54181 359.36 11.8818C365.832 18.2217 369.266 27.0712 369.266 36.7132ZM334.529 54.2802C345.095 54.2802 352.228 47.1477 352.228 36.7132C352.228 26.1467 345.095 19.1463 334.529 19.1463H297.017V54.2802H334.529Z" fill="#2F2B2A"></path><path d="M219.893 57.4502V78.5833H274.047V95.622H202.854V1.97559H272.594V19.1463H219.893V40.2795H270.613V57.4502H219.893Z" fill="#2F2B2A"></path><path d="M151.88 1.97559C164.956 1.97559 176.975 6.73055 185.561 15.3159C194.146 23.9013 198.901 35.7887 198.901 48.8648C198.901 61.8089 194.146 73.8284 185.561 82.4137C176.975 90.9991 164.956 95.622 151.88 95.622H129.69H112.651V1.97559H151.88ZM151.88 78.5833C169.447 78.5833 181.862 66.2997 181.862 48.8648C181.862 31.2979 169.447 19.1463 151.88 19.1463H129.69V78.5833H151.88Z" fill="#2F2B2A"></path><path d="M926.871 92.3359H857.051V1.30273H926.871V3.90369H859.58V46.9494H920.294V49.5503H859.58V89.735H926.871V92.3359Z" fill="#2F2B2A"></path><path d="M794.203 92.3359H771.056V1.30273H794.203C832.528 1.30273 851.121 20.8098 851.121 46.9494C851.121 71.6584 832.528 92.3359 794.203 92.3359ZM773.585 3.90369V89.735H794.203C831.136 89.735 848.591 70.2279 848.591 46.9494C848.591 22.2404 831.136 3.90369 794.203 3.90369H773.585Z" fill="#2F2B2A"></path><path d="M719.543 93.6365C691.463 93.8966 671.984 72.9589 671.984 46.9495C671.984 20.94 691.463 -0.257723 719.543 0.00236816C747.623 0.262467 767.102 20.94 767.102 46.9495C767.102 72.9589 747.623 93.3764 719.543 93.6365ZM719.543 91.0355C746.231 90.7754 764.572 71.5284 764.572 46.9495C764.572 22.3705 746.231 2.86341 719.543 2.60331C692.855 2.34322 674.514 22.3705 674.514 46.9495C674.514 71.5284 692.855 91.2956 719.543 91.0355Z" fill="#2F2B2A"></path><path d="M623.89 93.6361C596.822 93.6361 577.09 73.0886 577.09 46.9491C577.09 20.8095 596.822 0.00195312 623.89 0.00195312C645.772 0.00195312 661.203 12.2264 667.654 29.7828L665.377 30.9532C659.305 14.3072 644.886 2.6029 623.89 2.6029C598.213 2.6029 579.62 22.2401 579.62 46.9491C579.62 71.6581 598.213 91.0351 623.89 91.0351C645.139 91.0351 660.064 79.4609 665.756 62.4247L668.033 63.7252C661.835 81.6717 646.151 93.6361 623.89 93.6361Z" fill="#2F2B2A"></path></svg>