<svg xmlns="http://www.w3.org/2000/svg" width="148" height="68" viewBox="0 0 148 68" fill="none"><path d="M125.789 4.68988H130.883L142.401 32.4666H137.308L135.075 27.0601H121.598L119.364 32.4666H114.311L125.789 4.68988ZM123.713 22.0062H132.959L128.336 10.8015L123.713 22.0062Z" fill="white"></path><path d="M97.8828 26.9818L108.186 4.68988H113.24V32.4666H108.186V15.6595L100.429 32.4666H95.3754L87.6183 15.6595V32.4666H82.5645V4.68988H87.6183L97.8828 26.9818Z" fill="white"></path><path d="M80.8042 14.9935C80.8042 17.8143 79.7856 20.4392 77.8659 22.3197C76.7689 23.4166 75.4369 24.2394 73.9481 24.7095L80.2557 32.4666H74.4966L68.62 25.258H59.3742V32.4666H54.3203V4.68988H70.5005C73.3605 4.68988 75.9854 5.74767 77.8659 7.62818C79.7856 9.50869 80.8042 12.1336 80.8042 14.9935ZM70.5005 20.2041C73.6347 20.2041 75.7503 18.0885 75.7503 14.9935C75.7503 11.8593 73.6347 9.78293 70.5005 9.78293H59.3742V20.2041H70.5005Z" fill="white"></path><path d="M36.4992 21.1443V27.4127H52.5619V32.4666H31.4453V4.68988H52.1309V9.78293H36.4992V16.0513H51.5433V21.1443H36.4992Z" fill="white"></path><path d="M16.3251 4.68988C20.2037 4.68988 23.7688 6.10026 26.3153 8.64679C28.8618 11.1933 30.2722 14.7193 30.2722 18.5978C30.2722 22.4372 28.8618 26.0023 26.3153 28.5489C23.7688 31.0954 20.2037 32.4666 16.3251 32.4666H9.74332H4.68945V4.68988H16.3251ZM16.3251 27.4127C21.5357 27.4127 25.2184 23.7692 25.2184 18.5978C25.2184 13.3872 21.5357 9.78293 16.3251 9.78293H9.74332V27.4127H16.3251Z" fill="white"></path><path d="M108.44 63.3109H87.7305V37.0488H108.44V37.7991H88.4808V50.2174H106.489V50.9677H88.4808V62.5605H108.44V63.3109Z" fill="white"></path><path d="M69.0883 63.3109H62.2227V37.0488H69.0883C80.456 37.0488 85.9711 42.6764 85.9711 50.2174C85.9711 57.3456 80.456 63.3109 69.0883 63.3109ZM62.973 37.7991V62.5605H69.0883C80.0434 62.5605 85.2207 56.9329 85.2207 50.2174C85.2207 43.0891 80.0434 37.7991 69.0883 37.7991H62.973Z" fill="white"></path><path d="M46.9424 63.6858C38.6136 63.7608 32.8359 57.7205 32.8359 50.2171C32.8359 42.7136 38.6136 36.5983 46.9424 36.6734C55.2712 36.7484 61.0489 42.7136 61.0489 50.2171C61.0489 57.7205 55.2712 63.6107 46.9424 63.6858ZM46.9424 62.9354C54.8586 62.8604 60.2986 57.3078 60.2986 50.2171C60.2986 43.1263 54.8586 37.4987 46.9424 37.4237C39.0263 37.3487 33.5863 43.1263 33.5863 50.2171C33.5863 57.3078 39.0263 63.0105 46.9424 62.9354Z" fill="white"></path><path d="M18.5708 63.6857C10.5421 63.6857 4.68945 57.7579 4.68945 50.217C4.68945 42.676 10.5421 36.6732 18.5708 36.6732C25.0613 36.6732 29.6384 40.1999 31.5518 45.2647L30.8765 45.6024C29.0757 40.8001 24.7987 37.4236 18.5708 37.4236C10.9548 37.4236 5.4398 43.0887 5.4398 50.217C5.4398 57.3452 10.9548 62.9353 18.5708 62.9353C24.8737 62.9353 29.3008 59.5963 30.989 54.6815L31.6643 55.0567C29.826 60.2341 25.1739 63.6857 18.5708 63.6857Z" fill="white"></path><g clip-path="url(#clip0_6823_48)"><path d="M129.553 51.2652L128.116 49.8279L129.553 48.3907L130.99 49.8279L129.553 51.2652ZM131.363 55.8672L130.608 55.1129L130.988 54.7331C131.196 54.5249 131.538 54.5249 131.748 54.7331L132.124 55.1093L132.672 55.6571L134.089 57.0743L131.823 59.3406C131.2 59.9633 130.378 60.2738 129.557 60.2738C128.735 60.2738 127.913 59.9633 127.29 59.3406C126.669 58.7178 126.357 57.8961 126.357 57.0743H126.359C126.359 56.2507 126.669 55.4289 127.29 54.808C128.625 53.4694 129.975 52.1308 131.301 50.8159L131.664 51.1793L133.556 53.0713C134.447 53.9624 135.621 54.408 136.797 54.408C137.973 54.408 139.148 53.9624 140.039 53.0713C140.93 52.1801 141.376 51.004 141.376 49.8298C141.376 48.6555 140.93 47.4795 140.039 46.5883L136.797 43.3468L132.048 48.0967L135.291 51.3382C135.704 51.7509 136.25 51.9573 136.797 51.9573C137.343 51.9591 137.891 51.7528 138.304 51.3382C138.717 50.9255 138.921 50.3795 138.921 49.8316C138.921 49.2837 138.715 48.7377 138.304 48.325L136.797 46.8184L136.142 47.474L135.822 47.7936L134.84 48.7761L134.46 48.3962C134.252 48.188 134.252 47.8465 134.46 47.6365L135.063 47.0339L135.382 46.7143L136.797 45.299L139.064 47.5653C139.685 48.188 139.997 49.0098 139.997 49.8316C139.997 50.6534 139.686 51.4752 139.064 52.0979C138.443 52.7188 137.621 53.0293 136.797 53.0293C135.976 53.0311 135.154 52.7206 134.531 52.0979L130.526 48.0985L132.794 45.8286C133.686 44.9374 134.131 43.7613 134.131 42.5871C134.131 41.4129 133.686 40.2368 132.794 39.3456C131.903 38.4544 130.727 38.0088 129.553 38.0088C128.379 38.0088 127.203 38.4544 126.311 39.3456L123.07 42.5871L126.297 45.814L126.311 45.8286L127.818 47.3352L131.061 44.0919C131.474 43.6792 131.679 43.1331 131.679 42.5853C131.679 42.0374 131.472 41.4914 131.061 41.0787C130.649 40.666 130.103 40.4596 129.555 40.4596C129.007 40.4596 128.461 40.666 128.048 41.0787L126.542 42.5853L127.694 43.7376L128.492 44.5356L128.112 44.9155C127.904 45.1237 127.562 45.1237 127.352 44.9155L126.43 43.9933L125.022 42.5853L127.288 40.319C127.911 39.6962 128.733 39.3858 129.555 39.3858C130.377 39.3858 131.198 39.6962 131.821 40.319C132.442 40.9417 132.754 41.7635 132.754 42.5853C132.754 43.4071 132.444 44.2288 131.821 44.8516L128.2 48.4729L127.825 48.8582L127.44 48.4729L125.537 46.57C124.648 45.6898 123.479 45.2479 122.31 45.2479C121.141 45.2479 119.96 45.6935 119.069 46.5846C118.178 47.4758 117.732 48.6519 117.732 49.8261C117.732 51.0004 118.178 52.1764 119.069 53.0676L122.31 56.3091L125.544 53.0749L125.552 53.0676L127.062 51.5573L123.819 48.3195H123.817C123.404 47.9068 122.858 47.7004 122.31 47.7004C121.762 47.7004 121.216 47.9068 120.804 48.3195C120.391 48.7322 120.185 49.2783 120.185 49.8261C120.185 50.374 120.391 50.92 120.804 51.3327L122.31 52.8393L122.97 52.1801L123.506 51.6432L123.894 51.256C124.102 51.0478 124.443 51.0478 124.653 51.256L125.033 51.6359L124.268 52.4029L122.314 54.3569L120.048 52.0906C119.427 51.4679 119.114 50.6461 119.114 49.8243C119.114 49.0025 119.425 48.1807 120.048 47.558C120.67 46.9353 121.492 46.6248 122.314 46.6248C123.136 46.6248 123.957 46.9353 124.58 47.558L128.203 51.1775L128.585 51.5592L128.205 51.9354L126.308 53.8328C125.422 54.7221 124.978 55.8946 124.978 57.067C124.978 58.2394 125.424 59.4173 126.315 60.3084C127.206 61.1996 128.382 61.6452 129.557 61.6452C130.731 61.6452 131.907 61.1996 132.798 60.3084L136.04 57.067L132.798 53.8255L131.295 52.3225L129.883 53.7232L129.88 53.7196L128.048 55.5567V55.5585C127.635 55.9712 127.427 56.5191 127.427 57.0651H127.429C127.429 57.613 127.635 58.159 128.048 58.5717C128.461 58.9845 129.007 59.1908 129.555 59.1908C130.103 59.1908 130.649 58.9845 131.061 58.5717L132.568 57.0651L131.911 56.4077L131.363 55.8599V55.8672ZM135.893 55.4088L137.555 57.0724L133.554 61.0736C132.453 62.1748 131.003 62.7245 129.553 62.7245C128.103 62.7245 126.653 62.1748 125.552 61.0736C124.451 59.9724 123.901 58.5224 123.901 57.0724C123.901 56.7711 123.925 56.468 123.972 56.1685L122.31 57.8303L118.309 53.8291C117.208 52.7279 116.658 51.2779 116.658 49.8279C116.658 48.378 117.208 46.928 118.309 45.8268C119.41 44.7256 120.86 44.1759 122.31 44.1759C122.612 44.1759 122.915 44.1996 123.214 44.2471L121.552 42.5853L125.554 38.5841C126.651 37.4811 128.103 36.9314 129.553 36.9314C131.003 36.9314 132.453 37.4811 133.554 38.5823C134.655 39.6835 135.205 41.1335 135.205 42.5835C135.205 42.8866 135.181 43.1879 135.134 43.4874L136.797 41.8238L140.799 45.8249C141.9 46.9261 142.449 48.3761 142.449 49.8261C142.449 51.2761 141.9 52.7261 140.799 53.8273C139.697 54.9285 138.247 55.4782 136.797 55.4782C136.496 55.4782 136.193 55.4544 135.893 55.407V55.4088Z" fill="white"></path></g><defs><clipPath id="clip0_6823_48"><rect width="25.7931" height="25.7931" fill="white" transform="translate(116.654 36.931)"></rect></clipPath></defs></svg>