<svg xmlns="http://www.w3.org/2000/svg" width="165" height="77" viewBox="0 0 165 77" fill="none"><path d="M140.587 5.74121H146.279L159.153 36.7858H153.46L150.965 30.7432H135.902L133.406 36.7858H127.758L140.587 5.74121ZM138.267 25.0948H148.6L143.433 12.5719L138.267 25.0948Z" fill="#2F2B2A"></path><path d="M109.398 30.6557L120.914 5.74121H126.562V36.7858H120.914V18.0014L112.244 36.7858H106.595L97.9258 18.0014V36.7858H92.2773V5.74121H97.9258L109.398 30.6557Z" fill="#2F2B2A"></path><path d="M90.3105 17.257C90.3105 20.4097 89.1721 23.3433 87.0266 25.4451C85.8005 26.6711 84.3118 27.5906 82.6479 28.1161L89.6975 36.7858H83.2609L76.693 28.7291H66.3594V36.7858H60.7109V5.74121H78.7947C81.9911 5.74121 84.9248 6.92344 87.0266 9.02519C89.1721 11.1269 90.3105 14.0606 90.3105 17.257ZM78.7947 23.0806C82.2976 23.0806 84.6621 20.7162 84.6621 17.257C84.6621 13.7541 82.2976 11.4334 78.7947 11.4334H66.3594V23.0806H78.7947Z" fill="#2F2B2A"></path><path d="M40.793 24.1315V31.1373H58.7454V36.7858H35.1445V5.74121H58.2637V11.4334H40.793V18.4393H57.6069V24.1315H40.793Z" fill="#2F2B2A"></path><path d="M18.2467 5.74121C22.5816 5.74121 26.5662 7.31752 29.4123 10.1636C32.2584 13.0098 33.8347 16.9505 33.8347 21.2854C33.8347 25.5764 32.2584 29.561 29.4123 32.4071C26.5662 35.2532 22.5816 36.7858 18.2467 36.7858H10.8906H5.24219V5.74121H18.2467ZM18.2467 31.1373C24.0703 31.1373 28.1863 27.0652 28.1863 21.2854C28.1863 15.4618 24.0703 11.4334 18.2467 11.4334H10.8906V31.1373H18.2467Z" fill="#2F2B2A"></path><path d="M121.197 71.2594H98.0508V41.9077H121.197V42.7463H98.8894V56.6255H119.016V57.4641H98.8894V70.4208H121.197V71.2594Z" fill="#2F2B2A"></path><path d="M77.2164 71.2594H69.543V41.9077H77.2164C89.9215 41.9077 96.0853 48.1974 96.0853 56.6255C96.0853 64.5924 89.9215 71.2594 77.2164 71.2594ZM70.3816 42.7463V70.4208H77.2164C89.4602 70.4208 95.2467 64.1312 95.2467 56.6255C95.2467 48.6586 89.4602 42.7463 77.2164 42.7463H70.3816Z" fill="#2F2B2A"></path><path d="M52.4653 71.6784C43.1566 71.7623 36.6992 65.0114 36.6992 56.6252C36.6992 48.239 43.1566 41.4042 52.4653 41.4881C61.774 41.5719 68.2314 48.239 68.2314 56.6252C68.2314 65.0114 61.774 71.5946 52.4653 71.6784ZM52.4653 70.8398C61.3127 70.7559 67.3927 64.5501 67.3927 56.6252C67.3927 48.7002 61.3127 42.4106 52.4653 42.3267C43.6178 42.2428 37.5378 48.7002 37.5378 56.6252C37.5378 64.5501 43.6178 70.9237 52.4653 70.8398Z" fill="#2F2B2A"></path><path d="M20.7567 71.6781C11.7834 71.6781 5.24219 65.053 5.24219 56.6249C5.24219 48.1968 11.7834 41.4878 20.7567 41.4878C28.0107 41.4878 33.1263 45.4293 35.2648 51.09L34.51 51.4674C32.4974 46.1002 27.7172 42.3264 20.7567 42.3264C12.2447 42.3264 6.08081 48.658 6.08081 56.6249C6.08081 64.5918 12.2447 70.8395 20.7567 70.8395C27.8011 70.8395 32.7489 67.1077 34.6358 61.6147L35.3906 62.034C33.336 67.8205 28.1365 71.6781 20.7567 71.6781Z" fill="#2F2B2A"></path><g clip-path="url(#clip0_6823_1955)"><path d="M144.795 57.7965L143.188 56.1902L144.795 54.5839L146.401 56.1902L144.795 57.7965ZM146.817 62.9399L145.974 62.0969L146.399 61.6724C146.631 61.4397 147.013 61.4397 147.248 61.6724L147.668 62.0928L148.281 62.7051L149.864 64.289L147.332 66.8219C146.636 67.5179 145.717 67.8649 144.799 67.8649C143.88 67.8649 142.962 67.5179 142.266 66.8219C141.572 66.1259 141.223 65.2075 141.223 64.289H141.225C141.225 63.3685 141.572 62.45 142.266 61.7561C143.758 60.26 145.266 58.7639 146.748 57.2944L147.154 57.7005L149.269 59.815C150.265 60.8111 151.577 61.3091 152.891 61.3091C154.206 61.3091 155.518 60.8111 156.514 59.815C157.51 58.819 158.008 57.5046 158.008 56.1922C158.008 54.8798 157.51 53.5654 156.514 52.5694L152.891 48.9465L147.583 54.2553L151.207 57.8781C151.669 58.3394 152.279 58.57 152.891 58.57C153.502 58.572 154.114 58.3414 154.575 57.8781C155.036 57.4168 155.265 56.8066 155.265 56.1942C155.265 55.5819 155.034 54.9717 154.575 54.5104L152.891 52.8265L152.159 53.5593L151.801 53.9164L150.703 55.0145L150.279 54.59C150.046 54.3573 150.046 53.9756 150.279 53.7409L150.952 53.0674L151.31 52.7102L152.891 51.1284L155.424 53.6613C156.118 54.3573 156.467 55.2758 156.467 56.1942C156.467 57.1127 156.12 58.0312 155.424 58.7272C154.73 59.4211 153.812 59.7681 152.891 59.7681C151.973 59.7701 151.054 59.4232 150.358 58.7272L145.882 54.2573L148.417 51.7203C149.413 50.7243 149.911 49.4098 149.911 48.0975C149.911 46.7851 149.413 45.4706 148.417 44.4746C147.421 43.4786 146.107 42.9806 144.795 42.9806C143.482 42.9806 142.168 43.4786 141.172 44.4746L137.549 48.0975L141.155 51.704L141.172 51.7203L142.856 53.4041L146.48 49.7793C146.942 49.318 147.17 48.7077 147.17 48.0954C147.17 47.4831 146.94 46.8728 146.48 46.4116C146.019 45.9503 145.409 45.7196 144.797 45.7196C144.184 45.7196 143.574 45.9503 143.113 46.4116L141.429 48.0954L142.717 49.3833L143.609 50.2752L143.184 50.6998C142.952 50.9325 142.57 50.9325 142.335 50.6998L141.304 49.6691L139.731 48.0954L142.264 45.5625C142.96 44.8665 143.878 44.5195 144.797 44.5195C145.715 44.5195 146.634 44.8665 147.33 45.5625C148.023 46.2585 148.372 47.1769 148.372 48.0954C148.372 49.0139 148.026 49.9323 147.33 50.6283L143.282 54.6757L142.864 55.1064L142.433 54.6757L140.306 52.549C139.312 51.5652 138.006 51.0712 136.7 51.0712C135.394 51.0712 134.073 51.5693 133.077 52.5653C132.081 53.5613 131.583 54.8757 131.583 56.1881C131.583 57.5005 132.081 58.8149 133.077 59.811L136.7 63.4338L140.314 59.8191L140.323 59.811L142.011 58.123L138.386 54.5043H138.384C137.922 54.043 137.312 53.8124 136.7 53.8124C136.088 53.8124 135.477 54.043 135.016 54.5043C134.555 54.9655 134.324 55.5758 134.324 56.1881C134.324 56.8004 134.555 57.4107 135.016 57.872L136.7 59.5558L137.437 58.819L138.037 58.2189L138.469 57.7862C138.702 57.5536 139.084 57.5536 139.318 57.7862L139.743 58.2108L138.888 59.068L136.704 61.2519L134.171 58.719C133.477 58.023 133.128 57.1045 133.128 56.1861C133.128 55.2676 133.475 54.3491 134.171 53.6532C134.867 52.9572 135.785 52.6102 136.704 52.6102C137.622 52.6102 138.541 52.9572 139.237 53.6532L143.286 57.6985L143.713 58.1251L143.288 58.5455L141.168 60.6662C140.178 61.6601 139.682 62.9705 139.682 64.2808C139.682 65.5912 140.18 66.9076 141.176 67.9037C142.172 68.8997 143.486 69.3977 144.799 69.3977C146.111 69.3977 147.425 68.8997 148.421 67.9037L152.044 64.2808L148.421 60.658L146.742 58.9782L145.164 60.5437L145.16 60.5396L143.113 62.5929V62.5949C142.651 63.0562 142.419 63.6685 142.419 64.2788H142.421C142.421 64.8911 142.651 65.5014 143.113 65.9626C143.574 66.4239 144.184 66.6545 144.797 66.6545C145.409 66.6545 146.019 66.4239 146.48 65.9626L148.164 64.2788L147.43 63.544L146.817 62.9317V62.9399ZM151.881 62.4276L153.738 64.2869L149.266 68.7589C148.036 69.9896 146.415 70.604 144.795 70.604C143.174 70.604 141.553 69.9896 140.323 68.7589C139.092 67.5281 138.478 65.9075 138.478 64.2869C138.478 63.9502 138.504 63.6114 138.557 63.2766L136.7 65.134L132.228 60.6621C130.997 59.4313 130.383 57.8107 130.383 56.1902C130.383 54.5696 130.997 52.949 132.228 51.7183C133.459 50.4875 135.079 49.8732 136.7 49.8732C137.037 49.8732 137.375 49.8997 137.71 49.9528L135.853 48.0954L140.325 43.6235C141.551 42.3907 143.174 41.7764 144.795 41.7764C146.415 41.7764 148.036 42.3907 149.266 43.6215C150.497 44.8522 151.112 46.4728 151.112 48.0934C151.112 48.4322 151.085 48.769 151.032 49.1037L152.891 47.2443L157.363 51.7162C158.594 52.947 159.208 54.5675 159.208 56.1881C159.208 57.8087 158.594 59.4293 157.363 60.66C156.133 61.8908 154.512 62.5051 152.891 62.5051C152.555 62.5051 152.216 62.4786 151.881 62.4255V62.4276Z" fill="#2F2B2A"></path></g><defs><clipPath id="clip0_6823_1955"><rect width="28.8276" height="28.8276" fill="white" transform="translate(130.379 41.7759)"></rect></clipPath></defs></svg>